<?xml version="1.0" encoding="utf-8"?>

<svg 
    width="264px" height="150px"
	 xmlns="http://www.w3.org/2000/svg"  x="0px" y="0px" viewBox="0 0 512 512"
	 style="enable-background:new 0 0 512 512;" xml:space="preserve">
<style type="text/css">
	.st0{fill:#E9BF6E;}
	.st1{fill:#EFD094;}
	.st2{fill:#F75C76;}
	.st3{fill:#E94560;}
	.st4{fill:#FFDDCF;}
	.st5{fill:#FDD3DA;}
	.st6{fill:#FF8E9E;}
	.st7{fill:#313D40;}
</style>
<g>
	<g>
		<g>
			<path class="st0" d="M350.5,441.3c-15.6-27.7-42.3-47.2-72.9-53.4H249l-72.6,53.4V498l14,14H256h108.7v-16.6
				C364.7,475.8,359.5,457.3,350.5,441.3z"/>
			<path class="st1" d="M256,385.8c-39.8,0-75.4,21.8-94.5,55.6c-9,16-14.2,34.4-14.2,54.1V512h43.2v-16.6c0-10.5,1.3-20.8,4-30.5
				c11.1-38.9,43.3-68.9,83.1-77C270.6,386.5,263.4,385.8,256,385.8L256,385.8z"/>
		</g>
		<g>
			<path class="st2" d="M289.9,2.8H238L93.8,131.3v258.1l196.1,71.2h107.7c34.1,0,61.8-27.7,61.8-61.8V203.4
				C459.4,102.6,386.1,19,289.9,2.8z"/>
			<path class="st3" d="M245.3,391.2c-73.5-30.6-125.2-102.8-125.2-187.5c0-101,73.4-184.8,169.8-200.9C278.9,1,267.5,0,256,0
				C143.9,0,52.6,90.8,52.6,203.4v193.1v2.2c0,34.1,27.7,61.8,61.8,61.8h175.5v-2.7c0-14-4-27.2-11.2-38.5
				C270.9,407,259.4,397,245.3,391.2L245.3,391.2z"/>
		</g>
		<path class="st4" d="M278.7,419.3h-1c-15.8,0-27,15.5-22,30.5l5.1,15.4c3.2,9.5,12,15.9,22,15.9h22.4c11.4,0,20.6-9.2,20.6-20.6
			v-25.8c0-17.1-13.8-30.9-30.9-30.9h-0.3C286.1,403.8,278.7,410.5,278.7,419.3L278.7,419.3z"/>
		<g>
			<g>
				<path class="st4" d="M388.2,171.5L256,67.5l-64.2,36.7v207.2l64.2,28c74.9,0,135.9-60.7,135.9-135.9
					C391.9,192.4,390.6,181.8,388.2,171.5L388.2,171.5z"/>
				<path class="st5" d="M256,67.5L123.8,171.5c-2.5,10.2-3.8,20.9-3.8,31.9c0,75.3,61.1,135.9,135.9,135.9
					C180.9,264.3,180.9,142.5,256,67.5L256,67.5z"/>
			</g>
			<path class="st3" d="M388.2,171.5C373.8,111.7,319.9,67.5,256,67.5c-64,0-117.8,44.3-132.2,104.1c39.2-21.6,84.3-33.9,132.2-33.9
				C303.9,137.6,348.9,149.9,388.2,171.5L388.2,171.5z"/>
		</g>
		<g>
			<path class="st6" d="M174.6,223.9c-16.5,0-29.9,10.6-29.9,23.7s13.4,23.7,29.9,23.7s29.9-10.6,29.9-23.7
				C204.5,234.5,191.1,223.9,174.6,223.9L174.6,223.9z"/>
			<path class="st6" d="M337.4,223.9c-16.5,0-29.9,10.6-29.9,23.7s13.4,23.7,29.9,23.7s29.9-10.6,29.9-23.7
				C367.3,234.5,353.9,223.9,337.4,223.9L337.4,223.9z"/>
		</g>
		<g>
			<path class="st7" d="M192,208.3c-4.3,0-7.7,3.5-7.7,7.7v12.4c0,4.3,3.5,7.7,7.7,7.7c4.3,0,7.7-3.5,7.7-7.7V216
				C199.8,211.7,196.3,208.3,192,208.3z"/>
			<path class="st7" d="M320.8,208.3c-4.3,0-7.7,3.5-7.7,7.7v12.4c0,4.3,3.5,7.7,7.7,7.7c4.3,0,7.7-3.5,7.7-7.7V216
				C328.5,211.7,325.1,208.3,320.8,208.3z"/>
			<path class="st7" d="M277.4,222.2c-3.2-2.8-8.1-2.5-10.9,0.7c-2.8,3.2-6.9,5.1-11.1,5.1c-4.3,0-8.3-1.9-11.1-5.1
				c-2.8-3.2-7.7-3.6-10.9-0.7s-3.6,7.7-0.7,10.9c5.7,6.6,14.1,10.4,22.8,10.4c8.7,0,17-3.8,22.8-10.4
				C281,229.8,280.6,225,277.4,222.2L277.4,222.2z"/>
		</g>
	</g>
</g>
</svg>
